# xmcd
#
# Track frame offsets: 
#        150
#        14185
#        40937
#        51743
#        70627
#        82755
#        99755
#        118528
#        133468
#        160235
#
# Disc length: 2388 seconds
#
# Revision: 0
# Processed by: cddbd v1.5.2PL0 Copyright (c) Steve Scherf et al.
# Submitted via: ExactAudioCopy v0.99pb4
#
DISCID=8509520a
DTITLE=The Statler Brothers - Home
DYEAR=1993
DGENRE=Classic Country
TTITLE0=Dream On
TTITLE1=The All-Girl-All-Gospel Quartet
TTITLE2=Chattanoogie Shoe Shine Boy
TTITLE3=He'll Always Have You Again
TTITLE4=Feeling Mighty Fine
TTITLE5=My Past is Looking Brighter (All the Time)
TTITLE6=That Haunted Old House
TTITLE7=Chet, You're the Reason
TTITLE8=I've Never Lived This Long Before
TTITLE9=What We Love to Do
EXTD=
EXTT0=
EXTT1=
EXTT2=
EXTT3=
EXTT4=
EXTT5=
EXTT6=
EXTT7=
EXTT8=
EXTT9=
PLAYORDER=
